<svg width="16" height="16" viewBox="0 0 16 16" fill="none" xmlns="http://www.w3.org/2000/svg">
  <style>
    path { fill: #260590; }
    @media (prefers-color-scheme: dark) {
      path { fill: #EFEEE8; }
    }
  </style>
  <path d="M6.5024 14.9998C6.32478 14.9978 6.1485 14.9686 5.9797 14.9133C5.22564 14.6762 5.3011 13.6262 5.36399 13.0112C5.36993 12.6077 5.40493 12.2053 5.46875 11.8068C5.59494 11.3303 5.99535 10.9891 6.01636 10.467C6.02123 10.4257 6.0138 10.3839 5.995 10.3468C5.97311 10.3195 5.94381 10.2992 5.91062 10.2882C5.87743 10.2772 5.84176 10.2761 5.80794 10.2849C5.71968 10.3099 5.63801 10.3541 5.56867 10.4141C5.49933 10.4742 5.44402 10.5488 5.40664 10.6325C5.32195 10.7928 5.24926 10.9591 5.18918 11.1301C4.83754 12.0571 4.80112 14.0559 3.50745 14.299C3.08678 14.3845 2.65505 14.1522 2.23035 13.6254C1.95224 13.2549 1.82217 12.7941 1.86546 12.3328C1.90876 11.8715 2.12233 11.4429 2.46453 11.1307C3.20331 10.4339 4.03061 9.83754 4.92509 9.35685C5.04584 9.28553 5.14742 9.18588 5.22106 9.06652C5.25613 9.00596 5.26943 8.93521 5.25872 8.86604C5.24801 8.79688 5.21397 8.73348 5.16222 8.68637C5.08966 8.64333 5.00618 8.62221 4.92189 8.6256C4.68909 8.60473 4.45443 8.62413 4.22821 8.68291C3.59568 8.8759 3.25267 9.53276 2.84308 10.052C2.72083 10.2248 2.5599 10.3667 2.37312 10.4662C1.18826 11.0167 0.791178 9.47267 1.10101 8.62121C1.25542 8.22095 1.4947 7.85889 1.80236 7.55994C2.11002 7.261 2.47874 7.03226 2.88323 6.88946C3.5567 6.5964 3.63662 6.38778 3.64516 6.33097C3.67431 6.13593 3.29284 5.80767 2.98576 5.54377C2.64245 5.29157 2.35526 4.97082 2.1424 4.6018C2.04977 4.31693 2.04144 4.01135 2.1184 3.72185C2.19535 3.43236 2.3543 3.17127 2.57614 2.97002C2.71658 2.84931 2.88965 2.77293 3.07346 2.75047C3.25727 2.72802 3.44361 2.76049 3.60898 2.84385C4.30748 3.2626 4.83939 3.91042 5.11426 4.67714C5.36455 5.18385 5.60128 5.66237 5.86112 5.66237C6.01441 5.65282 6.23354 5.28988 6.26068 4.83545C6.26264 4.65349 6.25425 4.47156 6.23555 4.29054C6.13551 3.81359 6.13113 3.32153 6.22267 2.84287C6.31421 2.36422 6.49985 1.90851 6.76881 1.50215C6.89764 1.34223 7.06548 1.21819 7.25614 1.14195C7.44681 1.0657 7.65388 1.03982 7.85744 1.06683C8.00613 1.10794 8.1405 1.18954 8.24557 1.30252C8.35063 1.41551 8.42227 1.55544 8.45251 1.70674C8.63476 2.65198 8.63459 3.62335 8.45201 4.56853C8.43039 4.72436 8.4103 4.86963 8.39471 5.00184C8.33289 5.53871 8.30978 6.12585 8.61033 6.41439C8.66209 6.46515 8.70482 6.48579 8.73899 6.47675C8.81731 6.42714 8.88407 6.3613 8.93479 6.28369C8.98551 6.20608 9.019 6.1185 9.03301 6.02685C9.39234 4.67785 9.84132 3.35435 10.377 2.06519C10.6654 1.37651 11.0947 1 11.5872 1L11.6184 1.0005C11.7175 1.00227 11.8152 1.02401 11.9057 1.06444C11.9962 1.10486 12.0776 1.16313 12.1451 1.23576C12.3748 1.54882 12.4791 1.93648 12.4376 2.32256C12.402 3.14116 12.1176 3.92942 11.6224 4.58213C11.153 5.33767 11.0333 5.62169 11.2565 5.86348C11.5451 5.68126 11.7984 5.44848 12.0044 5.17631C12.0677 5.10443 12.125 5.04059 12.1722 4.99132C12.1833 4.97976 13.2478 3.88191 14.1324 4.09154C14.319 4.14015 14.4887 4.239 14.623 4.37735C14.7573 4.5157 14.8512 4.68826 14.8943 4.87623C15.0063 5.23567 15.0297 5.61688 14.9625 5.98733C14.8953 6.35777 14.7395 6.70644 14.5083 7.0036C13.8399 7.77723 12.4908 7.86822 11.5973 7.92803C11.4122 7.93569 11.2276 7.95331 11.0444 7.98082C10.9843 8.0329 10.9463 8.10583 10.9379 8.18491C10.9403 8.26709 10.9634 8.34732 11.005 8.41822C11.0467 8.48911 11.1055 8.54835 11.1761 8.59051C11.3228 8.67295 12.892 9.60694 12.9684 10.5952C12.9802 10.7669 12.948 10.9387 12.8748 11.0944C12.8016 11.2501 12.6899 11.3846 12.5502 11.485C12.4882 11.5386 12.4152 11.5781 12.3365 11.6009C12.2577 11.6236 12.1749 11.629 12.0938 11.6167C11.6817 11.5614 11.351 11.0979 10.968 10.563C10.7741 10.2427 10.5269 9.95778 10.2372 9.72055C9.85098 9.51696 9.77863 9.92488 9.86111 10.2028C9.9732 10.4994 10.115 10.7837 10.2844 11.0517C10.7931 12.0047 11.4897 13.3087 10.4453 14.1391C10.3244 14.2559 10.1739 14.3376 10.0101 14.3753C9.84627 14.4131 9.67529 14.4054 9.51547 14.3533C8.97205 14.1534 8.747 13.4613 8.60106 12.9608C8.40069 12.4206 8.32951 11.8411 8.39321 11.2685C8.45756 11.0657 8.49336 10.8549 8.4996 10.6422C8.48939 10.5078 8.44636 10.3478 8.31687 10.3104C8.28097 10.3021 8.24357 10.3026 8.20794 10.312C8.1723 10.3215 8.13951 10.3395 8.11247 10.3646C8.0576 10.4307 8.01773 10.5079 7.99565 10.591C7.97357 10.674 7.9698 10.7608 7.98459 10.8455C8.02256 11.9723 8.25791 13.9411 7.25027 14.7464C7.03796 14.9151 6.77354 15.0047 6.5024 14.9998V14.9998Z" />
</svg>
