<svg fill="none" height="16" viewBox="0 0 16 16" width="16" xmlns="http://www.w3.org/2000/svg">
  <style>
    path { fill: #260590; }
    @media (prefers-color-scheme: dark) {
      path { fill: #EFEEE8; }
    }
  </style>
  <path d="m8.14981 14.9996c-.38149.0031-.75872-.0799-1.10361-.2426-.34488-.1628-.64853-.4012-.88823-.6974-.25807-.4421-.40284-.941-.42146-1.4523s.08949-1.0194.31473-1.479c.30818-.5759.27617-.7796.26882-.8083-.07106-.021-.14468-.0322-.21879-.0332-.35194.0111-.69957.0806-1.02861.2057-.25807.0855-.52117.1551-.7878.2084-.57649.1193-1.17579.0587-1.7166-.1735-.54082-.2323-.99697-.62494-1.30653-1.12477-.16328-.30977-.25262-.653-.26107-1.00292-.008447-.34992.06423-.69706.21238-1.01432.5083-1.0985 1.60495-1.0459 2.40275-1.00796.40149.06851.81417.02354 1.19138-.12982l.00934-.00666c-.18703-.13068-.39016-.23674-.60436-.31556l-.16076-.06591-.00067-.00071h-.00067c-.395-.12838-.7588-.33763-1.06813-.61437s-.55737-.61488-.72827-.99277c-.13763-.41572-.15994-.86088-.06458-1.28824.09537-.42736.30484-.82097.60624-1.13911.35874-.39998.83807-.6727 1.36568-.77706.52762-.104355 1.07492-.03469 1.55938.19852.43795.3221.79563.7406 1.04529 1.223.25752.39813.73777 1.13977.99326 1.14909.06337-.00133.17879-.0719.34087-.28561.08411-.12453.1535-.25833.20678-.39879.06836-.17222.15161-.33818.24882-.49599.19209-.3035.44339-.56533.73894-.76994.29554-.20461.62929-.34783.98137-.42109.3097-.06035.6285-.05681.9367.0104.3083.06721.5995.19667.8557.3804.4868.36005.8217.88814.9395 1.4813.1178.59317.0099 1.20886-.3025 1.72698-.1532.21994-.3284.42382-.5229.6085-.4636.47202-.6397.70634-.5303.93668.1296.20708.3333.35725.5697.42009.1927.06658.3822.1232.5656.1778.9833.29226 2.0979.62311 2.1933 2.25887.0521.38548-.0008.77787-.1531 1.13587-.1524.358-.3986.6685-.7127.8987-.2729.1595-.5856.2381-.9016.2267s-.6222-.1125-.8828-.2913c-.1933-.1167-.3799-.2441-.559-.3814-.4169-.3076-1.048-.7717-1.3455-.5952-.0527.0538-.0923.1191-.1155.1907-.0233.0716-.0296.1476-.0185.222.0172.1805.0509.359.1007.5333.032.1285.064.257.088.3868.1203.6251.043 1.272-.2212 1.8513-.26425.5793-.70232 1.0624-1.25364 1.3823-.26551.1322-.55918.1983-.85585.1924zm-2.10791-5.73674c.03402 0 .06804.00068.10273.00267.21042-.01186.42019.03261.60761.12882.18741.09622.34565.24069.45835.41843.10637.29792.13864.61712.09402.93022-.04462.3132-.16479.6108-.35017.8673-.13403.2925-.20015.6113-.19345.9328s.08604.6374.23214.924c.18675.2119.43066.3657.70258.443.27193.0773.5604.0749.83099-.0069.35484-.2215.63478-.5444.80356-.9266.16879-.3823.21861-.8063.14301-1.2171-.02069-.1086-.04803-.2171-.07471-.3249-.0676-.2381-.11118-.4823-.13008-.729-.02642-.2609.01887-.5239.13099-.761.11212-.23706.28684-.43913.50539-.58454.88384-.51862 1.83974.18573 2.47414.65244.1464.1135.2989.2188.4569.3155.1049.077.2282.1254.3575.1405.1294.0151.2604-.0037.3803-.0546.1514-.1379.2658-.3115.3328-.50488s.0845-.40039.0508-.60222c-.0514-.88412-.4603-1.04058-1.4622-1.33817-.1975-.05858-.4016-.11983-.6091-.19107-.2464-.07362-.4757-.19527-.6747-.35788-.199-.16262-.3637-.36295-.4846-.58949-.4349-.91209.2621-1.62245.7237-2.09181.1428-.13457.273-.28187.3889-.44006.1698-.29698.2267-.64508.1601-.9805-.0665-.33541-.2519-.63565-.5223-.84567-.1433-.10415-.3066-.1776-.4797-.21575s-.3523-.04018-.5262-.00595c-.2165.04663-.4214.13626-.60249.26356-.18107.1273-.33463.28966-.45152.47743-.06601.11003-.12266.22539-.16939.34486-.08402.21725-.19519.42304-.33086.6125-.12587.20554-.30121.37642-.5101.49711-.20888.12069-.44467.18736-.68595.19394-.78913-.02931-1.31145-.83619-1.81641-1.61646-.17991-.32486-.40719-.62127-.6744-.87946-.2828-.12461-.59809-.15587-.89995-.0893-.30185.06658-.57453.22755-.77837.4595-.17407.18059-.29693.40411-.35601.64766-.05907.24355-.05223.4984.01981.73845.1258.24492.30046.46157.51326.63663.2128.17505.45923.30481.72414.38131l.00133.00066.14409.05992c.577.23435 1.24809.58058 1.31015 1.18709.01102.18991-.03335.37892-.1277.54421-.09435.1653-.23464.2998-.40395.38718-.55471.29318-1.18969.39895-1.80974.30155-.85521-.03862-1.22476-.01465-1.42422.4161-.08064.17159-.12109.35928-.11832.54879s.04871.37587.13433.54504c.20768.31076.50431.55189.85125.69202.34695.14012.72813.17277 1.0939.09362.22483-.04623.44669-.10585.6644-.17847.4089-.14924.83843-.23459 1.27342-.25307z" />
</svg>